<svg width="1440" height="855" viewBox="0 0 1440 855" fill="none" xmlns="http://www.w3.org/2000/svg">
<path d="M1187.45 0.0930181C1186.54 0.396046 1185.63 0.699075 1184.69 1.01129C1183.33 0.556743 1183.33 0.556743 1181.94 0.0930181C1180.41 0.391919 1178.88 0.697661 1177.35 1.01129C1176.74 0.708257 1176.13 0.405229 1175.51 0.0930181C1173.1 0.953894 1173.1 0.953894 1170.92 1.92955C1171.79 5.00973 1172.66 8.07503 1173.67 11.1122C1172.5 10.885 1171.32 10.6577 1170.11 10.4235C1164.84 9.79494 1160.9 11.5933 1156.22 13.867C1157.28 18.5597 1158.48 22.4733 1160.82 26.7228C1158.39 26.7228 1155.97 26.7228 1153.47 26.7228C1153.77 27.9349 1154.08 29.147 1154.39 30.3958C1155.71 30.7056 1157.03 31.0108 1158.35 31.3141C1159.08 31.4846 1159.82 31.655 1160.58 31.8306C1162.65 32.2324 1162.65 32.2324 1165.41 32.2324C1165.41 33.4445 1165.41 34.6566 1165.41 35.9054C1164.69 36.0001 1163.97 36.0948 1163.23 36.1924C1160.82 36.8237 1160.82 36.8237 1158.98 39.5785C1158.91 41.7199 1158.9 43.8653 1158.98 46.0064C1157.46 46.0064 1155.95 46.0064 1154.39 46.0064C1154.39 44.1882 1154.39 42.3701 1154.39 40.4968C1151.17 40.7427 1148.22 41.1516 1145.2 42.3333C1143.74 44.1843 1142.99 45.8366 1142.19 48.0474C1141.66 49.8655 1141.66 49.8655 1139.69 50.5977C1139.69 51.2038 1139.69 51.8098 1139.69 52.4343C1138.18 52.4343 1136.66 52.4343 1135.1 52.4343C1135.1 51.8282 1135.1 51.2222 1135.1 50.5977C1134.5 50.5977 1133.89 50.5977 1133.27 50.5977C1133.32 49.2909 1133.32 49.2909 1133.38 47.9577C1133.27 45.0881 1133.27 45.0881 1131.43 43.2516C1130.52 43.2516 1129.61 43.2516 1128.67 43.2516C1128.98 45.6758 1129.28 48.1 1129.59 50.5977C1127.17 51.2038 1124.74 51.8098 1122.24 52.4343C1122.55 53.6464 1122.85 54.8585 1123.16 56.1073C1125.28 56.7134 1127.41 57.3194 1129.59 57.9439C1129.98 62.2286 1128.53 65.0821 1126.84 68.9631C1126.84 70.1752 1126.84 71.3873 1126.84 72.6361C1124.72 72.6361 1122.59 72.6361 1120.41 72.6361C1120.41 75.0604 1120.41 77.4846 1120.41 79.9823C1119.04 79.5277 1119.04 79.5277 1117.65 79.064C1113.46 78.8313 1110.42 79.0625 1106.63 80.9006C1106.63 82.7187 1106.63 84.5369 1106.63 86.4102C1108.15 86.7132 1109.66 87.0162 1111.22 87.3284C1111.22 89.4496 1111.22 91.5708 1111.22 93.7563C1112.13 93.7563 1113.04 93.7563 1113.98 93.7563C1114.23 93.0177 1114.47 92.279 1114.73 91.518C1115.09 90.7415 1115.45 89.965 1115.82 89.165C1116.73 88.8619 1117.63 88.5589 1118.57 88.2467C1118.54 89.7524 1118.54 89.7524 1118.51 91.2885C1118.57 94.6746 1118.57 94.6746 1119.49 97.4294C1121.38 98.0607 1121.38 98.0607 1123.16 98.3476C1123.47 100.166 1123.77 101.984 1124.08 103.857C1121.35 104.16 1118.63 104.463 1115.82 104.776C1115.21 103.26 1114.6 101.745 1113.98 100.184C1112.46 100.184 1110.95 100.184 1109.39 100.184C1109.39 100.79 1109.39 101.396 1109.39 102.021C1108.18 102.324 1106.96 102.627 1105.71 102.939C1105.41 105.06 1105.11 107.181 1104.8 109.367C1103.28 109.67 1101.77 109.973 1100.2 110.285C1099.9 109.073 1099.6 107.861 1099.29 106.612C1097.77 106.309 1096.26 106.006 1094.69 105.694C1094.09 106.603 1093.48 107.512 1092.86 108.449C1090.03 108.678 1090.03 108.678 1087.35 108.449C1087.35 107.843 1087.35 107.236 1087.35 106.612C1086.63 106.536 1085.91 106.461 1085.17 106.382C1082.62 105.943 1082.62 105.943 1081.55 103.8C1081.24 102.919 1081.24 102.919 1080.92 102.021C1079.97 104.581 1079.96 105.572 1080.86 108.219C1081.18 108.901 1081.5 109.583 1081.84 110.285C1080.66 110.304 1079.49 110.323 1078.28 110.342C1077.62 110.353 1076.96 110.364 1076.28 110.375C1074.41 110.401 1074.41 110.401 1072.65 109.367C1072.05 108.458 1071.44 107.549 1070.82 106.612C1069.9 107.53 1069.9 107.53 1069.78 110.228C1069.9 113.04 1069.9 113.04 1070.82 114.876C1070.27 114.678 1069.73 114.479 1069.17 114.274C1061.96 111.734 1061.96 111.734 1057.96 112.122C1058.13 111.08 1058.3 110.038 1058.48 108.965C1058.61 107.886 1058.74 106.806 1058.88 105.694C1057.96 104.776 1057.96 104.776 1054.8 104.489C1049.93 104.559 1045.64 106.049 1041.43 108.449C1039.65 110.859 1039.65 110.859 1038.67 113.04C1035.99 114.826 1034.43 115.292 1031.33 115.795C1031.83 113.465 1031.83 113.465 1033.16 111.203C1035.97 110.378 1035.97 110.378 1038.67 110.285C1038.67 109.679 1038.67 109.073 1038.67 108.449C1037.76 108.449 1036.86 108.449 1035.92 108.449C1036.22 106.327 1036.52 104.206 1036.84 102.021C1031.38 101.112 1031.38 101.112 1025.82 100.184C1027.54 107.186 1027.54 107.186 1028.57 110.285C1027.66 110.285 1026.75 110.285 1025.82 110.285C1025.82 109.679 1025.82 109.073 1025.82 108.449C1024.91 108.449 1024 108.449 1023.06 108.449C1023.06 109.661 1023.06 110.873 1023.06 112.122C1021.85 111.819 1020.64 111.516 1019.39 111.203C1019.39 110.597 1019.39 109.991 1019.39 109.367C1018.78 109.367 1018.18 109.367 1017.55 109.367C1017.21 108.06 1017.21 108.06 1016.86 106.727C1015.71 103.857 1015.71 103.857 1013.76 102.595C1013.19 102.405 1012.63 102.216 1012.04 102.021C1012.04 104.445 1012.04 106.869 1012.04 109.367C1009.62 109.367 1007.19 109.367 1004.69 109.367C1004.69 110.579 1004.69 111.791 1004.69 113.04C1005.7 113.4 1006.7 113.76 1007.74 114.13C1011.04 115.522 1012.36 117.079 1013.88 120.386C1011.44 121.373 1009.03 122.309 1006.53 123.141C1006.28 122.459 1006.04 121.777 1005.78 121.075C1004.75 118.672 1003.58 116.895 1001.94 114.876C998.84 115.379 997.271 115.845 994.592 117.631C989.442 119.418 984.399 119.972 978.98 120.386C979.093 121.503 979.207 122.621 979.324 123.772C979.35 126.195 979.339 127.308 977.753 129.178C976.357 130.269 974.915 131.3 973.469 132.324C973.469 132.93 973.469 133.536 973.469 134.16C979.716 134.506 984.267 133.953 990 131.405C990 133.829 990 136.254 990 138.751C993.334 138.751 996.667 138.751 1000.1 138.751C1000.1 139.357 1000.1 139.964 1000.1 140.588C998.89 140.588 997.678 140.588 996.429 140.588C996.592 141.634 996.592 141.634 996.759 142.701C996.877 143.613 996.995 144.526 997.117 145.466C997.309 146.825 997.309 146.825 997.505 148.21C997.453 149.028 997.401 149.846 997.347 150.689C995.573 152.201 995.573 152.201 993.673 153.444C993.444 156.83 993.444 156.83 993.673 159.872C992.651 159.834 991.628 159.796 990.574 159.757C987.245 159.872 987.245 159.872 985.408 161.708C985.408 162.92 985.408 164.132 985.408 165.381C983.893 165.078 982.378 164.775 980.816 164.463C981.937 161.992 981.937 161.992 983.571 159.872C983.609 158.342 983.611 156.81 983.571 155.28C982.965 155.28 982.359 155.28 981.735 155.28C981.735 154.674 981.735 154.068 981.735 153.444C982.606 154.05 983.477 154.656 984.375 155.28C987.245 157.117 987.245 157.117 989.082 157.117C989.385 153.48 989.688 149.844 990 146.098C986.969 146.098 983.939 146.098 980.816 146.098C980.513 144.885 980.21 143.673 979.898 142.424C977.085 141.277 977.085 141.277 974.388 140.588C973.782 142.103 973.176 143.618 972.551 145.179C970.277 144.592 970.277 144.592 967.959 143.343C966.71 141.025 966.71 141.025 966.122 138.751C965.516 138.751 964.91 138.751 964.286 138.751C963.336 140.262 962.424 141.797 961.531 143.343C960.887 144.081 960.243 144.82 959.579 145.581C957.619 148.259 957.243 150.175 956.939 153.444C956.333 153.444 955.727 153.444 955.102 153.444C955.102 154.353 955.102 155.262 955.102 156.198C953.89 156.502 952.678 156.805 951.429 157.117C951.429 158.329 951.429 159.541 951.429 160.79C950.595 160.733 949.762 160.676 948.903 160.618C945.643 160.806 944.485 161.219 942.245 163.545C942.245 164.454 942.245 165.363 942.245 166.299C942.946 166.602 943.647 166.905 944.369 167.218C948.313 170.153 948.62 174.502 949.592 179.155C952.653 177.931 955.714 176.706 958.776 175.482C957.623 177.788 956.479 178.119 954.184 179.155C954.184 180.064 954.184 180.973 954.184 181.91C955.699 182.213 957.214 182.516 958.776 182.828C958.169 184.04 957.563 185.252 956.939 186.501C956.333 186.501 955.727 186.501 955.102 186.501C954.799 185.592 954.496 184.683 954.184 183.747C952.365 183.747 950.547 183.747 948.673 183.747C948.067 182.534 947.461 181.322 946.837 180.073C940.85 180.764 940.85 180.764 938.514 181.967C935.915 183.225 934.076 183.177 931.224 182.828C928.608 181.104 928.608 181.104 926.633 179.155C926.424 179.894 926.216 180.632 926.001 181.393C925.405 182.558 925.405 182.558 924.796 183.747C922.456 184.567 922.456 184.567 920.204 184.665C920.507 185.271 920.81 185.877 921.122 186.501C921.729 186.501 922.335 186.501 922.959 186.501C922.959 187.107 922.959 187.713 922.959 188.338C923.565 188.338 924.171 188.338 924.796 188.338C925.099 190.459 925.402 192.58 925.714 194.766C926.32 194.766 926.927 194.766 927.551 194.766C927.551 195.372 927.551 195.978 927.551 196.602C931.188 197.208 934.825 197.814 938.571 198.439C938.875 200.56 939.178 202.681 939.49 204.867C938.808 204.942 938.126 205.018 937.423 205.096C934.308 205.946 933.124 206.855 931.224 209.458C930.995 212.442 930.995 212.442 931.224 214.968C931.8 215.148 932.375 215.327 932.968 215.513C935.165 216.698 935.165 216.698 935.795 219.473C935.991 220.562 936.188 221.651 936.39 222.773C936.721 224.502 936.721 224.502 937.058 226.267C937.418 228.318 937.777 230.37 938.134 232.422C938.278 233.215 938.423 234.008 938.571 234.825C938.685 235.519 938.799 236.212 938.916 236.927C939.619 239.273 940.602 240.707 942.245 242.516C943.154 242.819 944.063 243.122 945 243.434C945.303 244.343 945.606 245.252 945.918 246.189C947.239 247.738 947.239 247.738 948.673 248.943C949.28 248.943 949.886 248.943 950.51 248.943C950.813 250.762 951.116 252.58 951.429 254.453C953.966 253.973 956.32 253.435 958.776 252.617C958.87 253.279 958.965 253.942 959.062 254.625C959.774 257.535 960.608 259.432 962.449 261.799C964.688 262.717 964.688 262.717 967.041 262.717C968.284 261.824 969.508 260.905 970.714 259.963C973.602 259.681 975.286 259.956 978.061 260.881C978.061 261.487 978.061 262.093 978.061 262.717C976.546 263.021 975.031 263.324 973.469 263.636C973.699 265.817 973.699 265.817 974.388 268.227C976.282 269.432 976.282 269.432 978.061 270.064C978.061 268.852 978.061 267.639 978.061 266.391C979.88 266.391 981.698 266.391 983.571 266.391C983.571 267.3 983.571 268.209 983.571 269.145C982.965 269.145 982.359 269.145 981.735 269.145C981.432 271.57 981.129 273.994 980.816 276.492C982.938 276.492 985.059 276.492 987.245 276.492C988.154 279.219 989.063 281.946 990 284.756C988.788 285.362 987.576 285.968 986.327 286.592C984.32 288.213 983.633 289.159 982.825 291.643C981.328 294.794 979.368 295.395 976.224 296.693C976.679 296.012 977.134 295.33 977.602 294.627C978.98 292.102 978.98 292.102 978.98 288.429C976.798 288.257 976.798 288.257 974.388 288.429C973.782 289.338 973.176 290.247 972.551 291.184C970.536 291.716 970.536 291.716 968.304 291.815C967.178 291.906 967.178 291.906 966.029 291.998C965.454 292.032 964.879 292.067 964.286 292.102C964.021 291.529 963.755 290.956 963.482 290.366C962.253 288.062 960.975 287.049 958.776 285.674C958.169 285.674 957.563 285.674 956.939 285.674C958.141 282.807 958.141 282.807 960.612 281.083C962.639 281.018 964.668 281.006 966.696 281.025C968.334 281.038 968.334 281.038 970.004 281.051C971.265 281.067 971.265 281.067 972.551 281.083C972.854 280.477 973.157 279.871 973.469 279.246C970.742 277.883 970.742 277.883 967.959 276.492C968.262 274.37 968.565 272.249 968.878 270.064C968.215 270.196 967.552 270.329 966.869 270.465C966.016 270.636 965.164 270.806 964.286 270.982C963.547 271.171 962.808 271.361 962.047 271.556C959.248 271.965 956.951 271.485 954.184 270.982C953.265 271.9 953.265 271.9 953.265 276.492C949.932 276.492 946.598 276.492 943.163 276.492C943.088 280.313 943.179 283.789 944.082 287.511C943.551 287.586 943.021 287.662 942.474 287.74C939.826 288.623 938.629 290.085 936.735 292.102C935.826 292.708 934.916 293.314 933.98 293.939C938.311 294.788 941.026 295.067 945 293.02C944.261 293.683 943.523 294.346 942.762 295.029C939.318 298.808 939.348 301.844 939.49 306.794C938.278 307.097 937.065 307.4 935.816 307.713C935.93 306.207 935.93 306.207 936.046 304.671C935.816 301.285 935.816 301.285 934.381 299.506C931.407 298.209 928.921 298.345 925.714 298.53C926.32 299.439 926.927 300.348 927.551 301.285C929.962 301.457 929.962 301.457 932.143 301.285C930.501 304.647 930.501 304.647 927.551 306.737C925.418 306.981 925.418 306.981 922.959 304.958C919.41 305.035 917.781 305.614 914.981 307.827C912.062 311.456 910.102 314.867 910.102 319.65C907.794 319.252 906.69 319.027 905.108 317.24C904.635 316.823 904.161 316.406 903.673 315.977C901.205 316.264 901.205 316.264 899.082 316.895C899.385 319.319 899.688 321.744 900 324.241C899.478 324.032 898.956 323.822 898.418 323.607C893.743 321.866 890.228 320.796 885.306 322.405C883.439 324.116 882.185 325.819 880.714 327.914C879.199 327.611 877.684 327.308 876.122 326.996C876.077 326.365 876.032 325.734 875.986 325.084C875.917 324.257 875.849 323.43 875.778 322.577C875.682 321.347 875.682 321.347 875.584 320.091C875.204 317.814 875.204 317.814 873.367 315.059C872.761 315.059 872.155 315.059 871.531 315.059C870.925 317.483 870.318 319.907 869.694 322.405C867.572 322.102 865.451 321.799 863.265 321.487C862.962 322.699 862.659 323.911 862.347 325.16C863.559 325.766 864.771 326.372 866.02 326.996C866.004 327.875 866.004 327.875 865.988 328.772C865.976 329.91 865.976 329.91 865.963 331.071C865.952 331.827 865.942 332.584 865.931 333.363C866.02 335.261 866.02 335.261 866.939 336.179C869.391 336.309 871.828 336.218 874.286 336.179C874.286 337.997 874.286 339.815 874.286 341.689C873.4 341.667 872.515 341.646 871.602 341.624C870.442 341.607 869.282 341.591 868.087 341.574C866.936 341.552 865.785 341.531 864.6 341.509C861.564 341.681 860.318 342.092 857.755 343.525C855.592 343.937 855.592 343.937 853.393 344.099C852.659 344.168 851.925 344.236 851.169 344.307C850.615 344.352 850.061 344.397 849.49 344.443C849.49 346.868 849.49 349.292 849.49 351.789C850.096 351.789 850.702 351.789 851.327 351.789C850.739 353.656 850.739 353.656 849.49 355.462C847.143 356.208 847.143 356.208 844.898 356.381C844.864 356.913 844.829 357.446 844.794 357.995C844.396 362.726 843.402 365.895 841.224 370.155C840.995 373.197 840.995 373.197 841.224 375.664C842.143 376.583 842.143 376.583 844.381 376.927C847.705 376.577 849.203 375.869 852.073 374.287C856.706 371.791 859.897 371.572 865.102 371.991C865.102 373.81 865.102 375.628 865.102 377.501C865.981 377.883 865.981 377.883 866.878 378.272C867.637 378.605 868.395 378.937 869.177 379.28C869.934 379.61 870.69 379.941 871.47 380.281C873.316 381.019 873.316 381.019 874.286 382.092C874.471 384.194 874.579 386.294 874.677 388.402C874.851 389.047 875.025 389.692 875.204 390.357C876.416 390.963 877.629 391.569 878.878 392.193C878.878 388.86 878.878 385.527 878.878 382.092C880.393 381.789 881.908 381.486 883.469 381.174C883.413 382.708 883.413 382.708 883.355 384.273C883.469 387.602 883.469 387.602 885.306 389.438C886.996 389.987 886.996 389.987 888.922 390.414C893.519 391.325 893.519 391.325 897.13 394.145C899.082 395.866 899.082 395.866 901.55 395.751C903.673 394.948 903.673 394.948 904.592 393.111C907.319 393.415 910.047 393.718 912.857 394.03C912.847 394.815 912.836 395.599 912.825 396.408C912.812 397.93 912.812 397.93 912.8 399.482C912.789 400.494 912.778 401.506 912.767 402.549C912.857 405.049 912.857 405.049 913.776 405.967C916.247 405.805 918.669 405.399 921.122 405.049C921.217 406.147 921.312 407.246 921.409 408.378C921.847 411.993 922.97 414.729 924.796 417.905C932.205 417.04 932.205 417.04 935.816 416.068C936.422 416.068 937.029 416.068 937.653 416.068C937.748 417.148 937.842 418.227 937.94 419.339C938.417 423.433 939.015 427.503 939.719 431.564C939.914 432.736 940.108 433.908 940.308 435.115C941.327 438.107 941.327 438.107 943.475 439.853C946.832 441.238 949.656 441.474 953.265 441.78C953.36 442.613 953.455 443.446 953.552 444.305C954.192 447.329 954.772 448.796 956.939 450.962C957.848 450.962 958.757 450.962 959.694 450.962C961.052 448.247 960.668 445.689 960.612 442.698C961.521 443.304 962.431 443.91 963.367 444.534C967.179 446.748 970.047 446.676 974.388 446.371C973.287 441.267 971.99 438.891 967.959 435.352C967.448 434.803 966.936 434.253 966.409 433.687C965.204 432.597 965.204 432.597 963.367 432.597C963.367 431.991 963.367 431.385 963.367 430.76C964.277 430.457 965.186 430.154 966.122 429.842C965.204 421.971 965.204 421.971 964.286 418.823C970.7 419.355 970.7 419.355 976.224 422.496C977.444 424.394 977.444 424.394 978.061 426.169C981.329 425.609 984.199 424.72 987.245 423.414C987.548 425.232 987.851 427.051 988.163 428.924C989.885 428.752 989.885 428.752 991.837 428.006C992.985 425.653 992.985 425.653 993.673 423.414C995.492 423.717 997.31 424.02 999.184 424.333C999.13 423.821 999.077 423.31 999.022 422.783C998.729 417.831 999.312 414.191 1002.16 410.056C1004.85 407.833 1007.47 408.36 1010.81 408.64C1013.74 408.752 1015.12 407.546 1017.55 405.967C1019.89 405.376 1022.24 404.938 1024.62 404.525C1026.73 404.131 1026.73 404.131 1029.49 403.212C1029.49 405.637 1029.49 408.061 1029.49 410.559C1030.65 410.786 1031.8 411.013 1032.99 411.247C1036.44 412.086 1037.67 413.027 1039.59 416.068C1042.35 416.068 1042.35 416.068 1044.36 414.232C1044.91 413.626 1045.45 413.02 1046.02 412.395C1046.02 413.001 1046.02 413.607 1046.02 414.232C1047.83 415.616 1047.83 415.616 1050.15 417.101C1050.92 417.596 1051.69 418.091 1052.48 418.601C1053.07 418.977 1053.67 419.353 1054.29 419.741C1053.75 422.518 1053.16 425.267 1052.45 428.006C1053.41 428.387 1053.41 428.387 1054.39 428.777C1055.23 429.109 1056.06 429.442 1056.93 429.785C1057.76 430.115 1058.59 430.445 1059.44 430.786C1061.6 431.632 1061.6 431.632 1063.47 432.597C1062.71 433.165 1061.95 433.733 1061.17 434.319C1060.42 434.963 1059.66 435.607 1058.88 436.27C1058.88 436.876 1058.88 437.482 1058.88 438.107C1060.09 438.41 1061.3 438.713 1062.55 439.025C1062.1 439.404 1061.64 439.782 1061.17 440.173C1059.8 441.78 1059.8 441.78 1059.8 445.453C1063.1 444.943 1064.39 443.847 1066.45 441.263C1066.93 440.675 1067.41 440.087 1067.9 439.48C1068.26 439.027 1068.61 438.574 1068.98 438.107C1069.49 439.11 1070 440.114 1070.53 441.148C1072.29 444.228 1073.88 445.909 1077.24 447.289C1078.15 446.986 1079.06 446.683 1080 446.371C1079.58 440.234 1078.5 436.343 1073.77 432.016C1072.64 431.059 1071.5 430.117 1070.35 429.197C1068.86 428.051 1068.86 428.051 1068.06 426.169C1068.66 426.873 1069.26 427.578 1069.88 428.303C1072.92 431.331 1076.24 432.199 1080.29 433.343C1090.23 436.398 1099.16 440.835 1108.12 446.084C1117.44 451.267 1126.73 453.219 1137.16 454.556C1147.2 455.87 1155.98 458.224 1164.79 463.409C1168.11 465.202 1171.54 466.33 1175.13 467.441C1177.47 468.289 1177.47 468.289 1179.13 470.328C1181.64 472.657 1183.16 472.48 1186.53 472.484C1190.81 472.616 1190.81 472.616 1194.28 474.895C1194.75 475.785 1195.23 476.675 1195.71 477.592C1196.45 478.843 1197.2 480.086 1197.95 481.323C1198.29 481.92 1198.63 482.518 1198.98 483.134C1202.14 487.433 1205.63 489.059 1210.7 490.333C1217.32 492.259 1222.54 494.862 1226.36 500.778C1228.08 504.133 1228.56 507.62 1229.17 511.306C1229.88 514.141 1231.51 515.783 1233.37 517.996C1234.6 523.363 1234.05 528.082 1233.2 533.434C1233.07 534.248 1232.94 535.062 1232.81 535.901C1231.38 544.531 1228.94 552.369 1222.84 558.927C1220.68 562.33 1219.99 565.912 1219.13 569.821C1218.94 570.72 1218.74 571.619 1218.53 572.545C1216.45 582.893 1215.71 593.354 1214.99 603.866C1214.94 604.567 1214.89 605.267 1214.84 605.989C1214.71 607.89 1214.59 609.792 1214.47 611.695C1214.22 615.012 1213.83 618.303 1213.42 621.604C1212.35 630.2 1211.81 638.736 1211.5 647.389C1211.44 648.811 1211.38 650.233 1211.32 651.655C1211.18 655.345 1211.03 659.036 1210.9 662.728C1210.67 668.661 1210.44 674.594 1210.2 680.527C1210.12 682.58 1210.04 684.633 1209.97 686.686C1209.74 692.64 1209.41 698.502 1208.57 704.404C1208.34 708.985 1208.53 713.596 1208.57 718.178C1204.03 718.178 1199.48 718.178 1194.8 718.178C1195.84 716.512 1196.88 714.845 1197.95 713.128C1200.73 708.693 1201.81 704.977 1202.14 699.813C1202.24 698.636 1202.33 697.46 1202.43 696.247C1204.4 664.76 1204.96 628.756 1184.95 602.218C1183.62 600.438 1182.36 598.619 1181.09 596.795C1173.74 586.378 1167.97 580.65 1155.19 578.38C1153.7 578.136 1152.21 577.908 1150.71 577.683C1150.29 571.639 1151.38 568.104 1154.33 562.876C1156.69 558.603 1158.51 555.082 1158.98 550.135C1159.06 549.367 1159.15 548.599 1159.23 547.807C1159.55 539.968 1157.79 532.345 1152.8 526.117C1148.67 522.516 1144.89 522.023 1139.52 522.214C1136.94 522.587 1136.94 522.587 1134.03 523.516C1128.76 524.876 1123.51 524.72 1118.09 524.702C1111.78 524.841 1111.78 524.841 1108.87 527.476C1106.86 531.228 1105.59 534.589 1105.89 538.886C1106.63 540.953 1106.63 540.953 1108.05 542.208C1109.56 543.615 1109.56 543.615 1109.62 545.623C1109.58 546.316 1109.54 547.01 1109.5 547.725C1109.4 550.247 1109.38 551.933 1110.08 554.382C1110.35 556.997 1109.82 557.644 1108.47 559.834C1106.63 562.991 1106.63 562.991 1106.86 565.229C1107.2 565.939 1107.2 565.939 1107.55 566.664C1108.46 566.664 1109.37 566.664 1110.31 566.664C1110.35 567.218 1110.4 567.772 1110.44 568.343C1110.51 569.077 1110.58 569.811 1110.65 570.567C1110.71 571.291 1110.78 572.016 1110.84 572.762C1111.24 575.007 1111.95 576.626 1113.06 578.602C1114.79 578.63 1114.79 578.63 1116.56 578.659C1117.21 578.67 1117.86 578.68 1118.53 578.691C1120.41 578.601 1120.41 578.601 1123.16 577.683C1123.16 578.895 1123.16 580.107 1123.16 581.356C1122.65 581.446 1122.14 581.536 1121.61 581.629C1112.66 583.382 1107.31 586.83 1100.65 593.025C1095.96 597.345 1091.06 601.005 1085.59 604.295C1079.23 608.162 1074.23 612.559 1069.09 617.935C1065.78 621.374 1062.46 624.297 1058.59 627.098C1048.79 634.23 1043.61 640.1 1040.51 652.063C1040.29 652.902 1040.07 653.741 1039.84 654.606C1038.8 660.261 1040.39 663.693 1043.42 668.473C1045.32 670.68 1047.07 671.93 1049.69 673.183C1050.3 672.88 1050.91 672.577 1051.53 672.265C1051.64 666.959 1051.38 661.907 1050.61 656.654C1051.22 656.654 1051.82 656.654 1052.45 656.654C1052.75 658.472 1053.06 660.291 1053.37 662.164C1054.88 662.467 1056.4 662.77 1057.96 663.082C1057.98 662.284 1057.98 662.284 1058 661.469C1058.07 659.041 1058.16 656.614 1058.25 654.186C1058.27 653.349 1058.29 652.511 1058.31 651.649C1058.56 645.436 1058.56 645.436 1061.63 640.125C1065.06 638.012 1066.74 637.371 1070.82 637.371C1070.41 638.306 1069.99 639.241 1069.57 640.204C1061.35 659.294 1056.7 679.405 1054.74 700.093C1054.16 710.148 1054.16 710.148 1049.46 718.58C1043.96 722.115 1037.46 724.25 1031.33 726.443C1022.24 729.699 1022.24 729.699 1020.31 731.952C1020.08 735.338 1020.08 735.338 1020.31 738.38C1019.71 738.359 1019.12 738.337 1018.51 738.315C994.22 737.85 969.636 743.465 945.901 747.963C927.396 751.462 908.966 753.329 890.185 754.565C889.317 754.622 888.449 754.679 887.555 754.738C877.277 755.409 866.999 755.998 856.707 756.403C852.687 756.574 848.868 756.98 844.898 757.664C841.762 757.984 838.62 758.224 835.478 758.471C833.485 758.632 831.493 758.793 829.5 758.955C828.428 759.043 827.356 759.13 826.251 759.219C820.851 759.666 815.453 760.144 810.055 760.618C779.981 763.252 749.94 765.602 719.78 766.984C718.733 767.032 717.686 767.081 716.607 767.13C714.685 767.217 712.762 767.301 710.839 767.381C709.984 767.419 709.129 767.456 708.248 767.495C707.52 767.525 706.791 767.555 706.041 767.587C703.882 767.736 701.768 767.968 699.622 768.232C695.026 768.755 690.48 768.819 685.857 768.816C684.96 768.819 684.062 768.822 683.137 768.826C680.177 768.834 677.217 768.836 674.257 768.837C672.159 768.84 670.06 768.843 667.961 768.846C663.546 768.852 659.131 768.854 654.716 768.853C650.27 768.853 645.824 768.859 641.378 768.872C606.717 768.969 572.239 768.206 537.691 765.275C534.02 764.971 530.346 764.689 526.673 764.411C498.723 762.282 470.806 759.795 442.94 756.745C441.555 756.594 440.17 756.443 438.785 756.293C437.395 756.141 436.006 755.989 434.617 755.838C433.928 755.763 433.239 755.687 432.529 755.61C428.88 755.211 425.232 754.81 421.584 754.405C403.679 752.426 385.902 750.826 367.881 750.537C366.079 750.509 366.079 750.508 364.24 750.479C363.195 750.469 362.149 750.458 361.072 750.448C358.193 750.319 355.489 749.891 352.653 749.399C351.127 749.303 349.598 749.238 348.068 749.206C347.207 749.181 346.345 749.157 345.457 749.132C344.075 749.094 344.075 749.094 342.666 749.055C336.06 748.84 329.601 748.425 323.065 747.432C296.341 743.397 268.675 745.731 241.76 746.587C240.818 746.617 240.818 746.617 239.856 746.647C235.616 746.782 231.377 746.925 227.138 747.071C226.066 747.107 224.994 747.142 223.89 747.179C218.018 747.39 212.183 747.742 206.332 748.282C174.908 750.826 141.627 744.393 112.758 732.049C109.493 730.751 106.291 729.924 102.857 729.197C102.857 728.591 102.857 727.985 102.857 727.361C101.098 726.766 99.3372 726.173 97.5765 725.582C96.5963 725.251 95.6161 724.921 94.6062 724.581C92.4637 723.89 90.3548 723.275 88.1633 722.77C88.1633 722.163 88.1633 721.557 88.1633 720.933C74.1951 716.094 60.4105 715.006 45.7438 715.165C43.1311 715.194 40.5188 715.203 37.906 715.208C25.2381 715.278 12.6724 715.814 0 716.342C0 762.099 0 807.856 0 855C475.2 855 950.4 855 1440 855C1440 606.517 1440 358.034 1440 102.021C1437.58 102.021 1435.15 102.021 1432.65 102.021C1432.39 101.49 1432.12 100.96 1431.85 100.414C1430.89 98.5007 1429.94 96.5876 1428.98 94.6746C1425.95 94.6746 1422.92 94.6746 1419.8 94.6746C1419.19 93.4624 1418.58 92.2503 1417.96 91.0015C1417.35 91.0015 1416.75 91.0015 1416.12 91.0015C1416.43 88.2742 1416.73 85.547 1417.04 82.7371C1410.84 83.5406 1410.84 83.5406 1408.78 84.5736C1408.78 82.1494 1408.78 79.7252 1408.78 77.2275C1409.38 77.2275 1409.99 77.2275 1410.61 77.2275C1410.61 77.8335 1410.61 78.4396 1410.61 79.064C1415.89 80.0971 1415.89 80.0971 1417.96 79.064C1417.96 78.458 1417.96 77.8519 1417.96 77.2275C1415.69 76.3184 1415.69 76.3184 1413.37 75.3909C1413.65 74.4061 1413.94 73.4213 1414.23 72.4066C1414.9 70.0387 1415.55 67.682 1416.12 65.29C1414.93 65.7161 1414.93 65.7161 1413.71 66.1509C1410.26 67.238 1406.9 68.0448 1403.27 68.0448C1403.27 67.4388 1403.27 66.8327 1403.27 66.2083C1400.5 65.3504 1399.71 65.2491 1396.84 66.2083C1396.84 64.9962 1396.84 63.784 1396.84 62.5352C1397.31 62.6867 1397.78 62.8382 1398.27 62.9943C1401.18 63.5917 1403.97 63.5105 1406.94 63.4535C1406.94 62.2414 1406.94 61.0292 1406.94 59.7804C1406.31 59.269 1405.69 58.7577 1405.04 58.2308C1403.05 56.3045 1403.05 56.3045 1403.23 54.0376C1403.47 51.9514 1403.78 49.9037 1404.18 47.8429C1401.08 47.0674 1398.97 46.8251 1395.92 47.8429C1395.96 46.6687 1395.99 45.4945 1396.03 44.2846C1396.1 42.2831 1396.1 42.2831 1395.92 40.4968C1395.31 39.8907 1394.71 39.2847 1394.08 38.6603C1393.71 36.5273 1393.4 34.3835 1393.16 32.2324C1391.65 32.5354 1390.13 32.8384 1388.57 33.1506C1388.57 33.7567 1388.57 34.3628 1388.57 34.9872C1387.49 35.1955 1386.41 35.4038 1385.3 35.6185C1381 36.6677 1378.24 38.6882 1374.8 41.4151C1374.8 38.3848 1374.8 35.3545 1374.8 32.2324C1372.98 32.6869 1372.98 32.6869 1371.12 33.1506C1369.73 35.8055 1369.29 37.4832 1369.29 40.4968C1367.77 40.4968 1366.26 40.4968 1364.69 40.4968C1364.39 39.5877 1364.09 38.6786 1363.78 37.742C1359.94 35.8236 1355.02 36.4789 1350.98 37.5124C1349.08 38.6603 1349.08 38.6603 1348.36 40.4717C1347.37 42.5514 1347.37 42.5514 1344.95 43.2623C1344.06 43.4671 1343.17 43.6719 1342.25 43.8829C1341.36 44.0948 1340.47 44.3067 1339.56 44.525C1338.76 44.7108 1337.96 44.8967 1337.14 45.0881C1335.78 45.5427 1335.78 45.5427 1334.39 46.0064C1332.65 46.2101 1330.91 46.3793 1329.16 46.5229C1328.25 46.5999 1327.34 46.6768 1326.4 46.7561C1325.35 46.8395 1325.35 46.8395 1324.29 46.9247C1323.83 48.7428 1323.83 48.7428 1323.37 50.5977C1326.81 51.6308 1326.81 51.6308 1328.88 50.5977C1331.76 50.1966 1334.63 49.8488 1337.52 49.5306C1340.8 49.1339 1343.49 48.6621 1346.33 46.9247C1345.42 49.4009 1344.88 50.4027 1342.48 51.6021C1339.63 52.5197 1337.08 52.8115 1334.1 53.0082C1333.12 53.0768 1332.14 53.1455 1331.13 53.2162C1330.38 53.2612 1329.64 53.3062 1328.88 53.3525C1329.56 56.2345 1330.49 58.8806 1331.63 61.6169C1328.22 63.8283 1324.88 63.697 1320.96 63.6256C1320.33 63.6251 1319.71 63.6245 1319.06 63.6239C1315.59 63.6346 1315.59 63.6346 1312.35 62.5352C1312.65 60.717 1312.95 58.8989 1313.27 57.0256C1311.05 55.628 1309.84 55.1775 1307.18 55.3038C1305 56.1073 1305 56.1073 1303.79 58.0013C1303.59 58.5884 1303.38 59.1755 1303.16 59.7804C1302.25 59.4774 1301.34 59.1743 1300.41 58.8621C1299.73 57.0117 1299.73 57.0117 1299.49 55.1891C1300.7 55.1891 1301.91 55.1891 1303.16 55.1891C1302.86 53.977 1302.56 52.7648 1302.24 51.516C1299.97 51.0615 1299.97 51.0615 1297.65 50.5977C1297.65 49.9917 1297.65 49.3856 1297.65 48.7612C1297.05 48.7612 1296.44 48.7612 1295.82 48.7612C1295.82 47.8521 1295.82 46.943 1295.82 46.0064C1296.48 46.4609 1297.14 46.9155 1297.83 47.3838C1300.54 48.8339 1301.98 49.0199 1305 48.7612C1305 47.8521 1305 46.943 1305 46.0064C1307.73 46.0064 1310.46 46.0064 1313.27 46.0064C1312.96 44.7943 1312.66 43.5822 1312.35 42.3333C1308.3 41.3211 1304.56 41.3448 1300.41 41.4151C1300.41 40.809 1300.41 40.2029 1300.41 39.5785C1301.32 39.5785 1302.23 39.5785 1303.16 39.5785C1303.77 38.6694 1304.38 37.7603 1305 36.8237C1305.61 36.5964 1306.21 36.3692 1306.84 36.135C1308.67 34.9872 1308.67 34.9872 1309.99 31.9454C1310.51 28.5593 1310.51 28.5593 1309.65 25.8619C1307.76 23.968 1307.76 23.968 1304.37 23.681C1303.36 23.7757 1302.36 23.8704 1301.33 23.968C1301.01 25.0475 1301.01 25.0475 1300.7 26.1489C1299.17 29.207 1298.03 29.2756 1294.9 30.3958C1294.27 31.0587 1293.65 31.7216 1293 32.4046C1292.42 32.9538 1291.83 33.503 1291.22 34.0689C1289.24 33.8599 1289.24 33.8599 1287.55 33.1506C1287.25 33.4537 1286.94 33.7567 1286.63 34.0689C1286.03 33.1598 1285.42 32.2507 1284.8 31.3141C1282.5 31.1993 1282.5 31.1993 1280.2 31.3141C1279.6 31.0111 1278.99 30.7081 1278.37 30.3958C1277.46 31.911 1276.55 33.4261 1275.61 34.9872C1272.23 34.4367 1268.87 33.8416 1265.51 33.1506C1264.6 30.4234 1264.6 30.4234 1263.67 27.641C1263.1 27.7073 1262.52 27.7736 1261.93 27.8419C1260.8 27.9698 1260.8 27.9698 1259.66 28.1002C1258.54 28.228 1258.54 28.228 1257.4 28.3584C1254.39 28.6621 1251.93 28.262 1248.98 27.641C1248.98 26.1259 1248.98 24.6108 1248.98 23.0497C1245.45 23.0497 1243.79 23.3468 1240.71 24.8862C1239.81 26.2499 1239.81 26.2499 1238.88 27.641C1237.97 27.338 1237.06 27.035 1236.12 26.7228C1234.57 21.9808 1234.08 17.9107 1234.29 12.9488C1231.86 13.2518 1229.44 13.5548 1226.94 13.867C1226.94 14.4731 1226.94 15.0791 1226.94 15.7036C1226.03 15.7036 1225.12 15.7036 1224.18 15.7036C1223.96 16.3854 1223.73 17.0672 1223.49 17.7697C1222.48 20.3867 1222.48 20.3867 1220.4 22.2462C1218.67 23.968 1218.67 23.968 1218.67 26.7228C1218.05 26.2493 1217.42 25.7758 1216.78 25.288C1213.32 23.5949 1211.37 24.1299 1207.65 24.8862C1206.74 24.8862 1205.83 24.8862 1204.9 24.8862C1204.29 25.7953 1203.69 26.7044 1203.06 27.641C1202.46 27.035 1201.85 26.4289 1201.22 25.8045C1200.32 25.8045 1199.41 25.8045 1198.47 25.8045C1198.47 24.5924 1198.47 23.3803 1198.47 22.1314C1199.08 21.8284 1199.68 21.5254 1200.31 21.2132C1200.85 18.781 1200.99 16.3537 1201.22 13.867C1200.5 13.5072 1199.78 13.1473 1199.04 12.7766C1196.22 10.8279 1195.64 9.80457 1194.8 6.52089C1194.64 3.57444 1194.64 3.57444 1194.8 1.01129C1192.27 -0.249483 1190.24 -0.020963 1187.45 0.0930181Z" fill="black"/>
</svg>
