<svg width="85" height="90" viewBox="0 0 74 84" fill="none" xmlns="http://www.w3.org/2000/svg">
<path d="M2 22L2 62" stroke="#5A4EFF" stroke-width="4" stroke-linecap="round" stroke-linejoin="round"/>
<path d="M2 22L36.641 2" stroke="#5A4EFF" stroke-width="4" stroke-linecap="round" stroke-linejoin="round"/>
<path d="M71.641 22L51.7224 33.5" stroke="#5A4EFF" stroke-width="2" stroke-linecap="round" stroke-linejoin="round"/>
<path d="M71.641 22V62" stroke="#5A4EFF" stroke-width="4" stroke-linecap="round" stroke-linejoin="round"/>
<path d="M37 82V59" stroke="#5A4EFF" stroke-width="2" stroke-linecap="round" stroke-linejoin="round"/>
<path d="M71.641 22L37 2" stroke="#5A4EFF" stroke-width="4" stroke-linecap="round" stroke-linejoin="round"/>
<path d="M1.99915 22.0015L21.9697 33.411" stroke="#5A4EFF" stroke-width="2" stroke-linecap="round" stroke-linejoin="round"/>
<path d="M2 62L36.641 82" stroke="#5A4EFF" stroke-width="4" stroke-linecap="round" stroke-linejoin="round"/>
<path d="M71.641 62L37 82" stroke="#5A4EFF" stroke-width="4" stroke-linecap="round" stroke-linejoin="round"/>
<path d="M23 34V50" stroke="#5A4EFF" stroke-width="2" stroke-linecap="round" stroke-linejoin="round"/>
<path d="M23 34L36.8564 26" stroke="#5A4EFF" stroke-width="2" stroke-linecap="round" stroke-linejoin="round"/>
<path d="M37 42L50.8564 50" stroke="#5A4EFF" stroke-width="2" stroke-linecap="round" stroke-linejoin="round"/>
<path d="M51 34V50" stroke="#5A4EFF" stroke-width="2" stroke-linecap="round" stroke-linejoin="round"/>
<path d="M37 42V26" stroke="#5A4EFF" stroke-width="2" stroke-linecap="round" stroke-linejoin="round"/>
<path d="M50.8564 34L37 26" stroke="#5A4EFF" stroke-width="2" stroke-linecap="round" stroke-linejoin="round"/>
<path d="M37 42L23 50" stroke="#5A4EFF" stroke-width="2" stroke-linecap="round" stroke-linejoin="round"/>
<path d="M23 50L36.8564 58" stroke="#5A4EFF" stroke-width="2" stroke-linecap="round" stroke-linejoin="round"/>
<path d="M50.8564 50L37 58" stroke="#5A4EFF" stroke-width="2" stroke-linecap="round" stroke-linejoin="round"/>
</svg>
